<?xml version="1.0" ?><svg id="flat" viewBox="0 0 512 512" xmlns="http://www.w3.org/2000/svg"><path d="M32,448a7.99977,7.99977,0,0,1-8-8,41.24469,41.24469,0,0,1,28.23877-39.17871l10.145-3.38184a7.99988,7.99988,0,1,1,5.05957,15.17871L57.29834,416A25.26585,25.26585,0,0,0,40,440,7.99977,7.99977,0,0,1,32,448Z" style="fill:#009644"/><path d="M451.63281,131.688a47.50873,47.50873,0,0,1-11.5249-1.41455L423.18945,126.044a8.00013,8.00013,0,0,1,3.88086-15.52247l16.91846,4.2295a32.13431,32.13431,0,0,0,30.35449-8.40772,7.99984,7.99984,0,0,1,11.31348,11.31348A48.23592,48.23592,0,0,1,451.63281,131.688Z" style="fill:#009644"/><path d="M472.00635,176.002a7.99862,7.99862,0,0,1-7.16162-4.42431,30.858,30.858,0,0,0-20.13916-16.15479l-22.646-5.66162a8.00012,8.00012,0,1,1,3.88086-15.52246l22.64551,5.66162a46.83759,46.83759,0,0,1,30.56933,24.522,8.00367,8.00367,0,0,1-7.14892,11.57959Z" style="fill:#009644"/><path d="M94.02637,310.02637a7.97505,7.97505,0,0,1-5.65674-2.34326l-10.71289-10.7129A30.427,30.427,0,0,0,56,288a8,8,0,0,1,0-16,46.32162,46.32162,0,0,1,32.97021,13.65674l10.7129,10.71289a8,8,0,0,1-5.65674,13.65674Z" style="fill:#009644"/><path d="M117.06934,285.06934a7.975,7.975,0,0,1-5.65674-2.34327l-9.75586-9.75586A30.427,30.427,0,0,0,80,264a8,8,0,0,1,0-16,46.32162,46.32162,0,0,1,32.97021,13.65674l9.75586,9.75586a8,8,0,0,1-5.65673,13.65674Z" style="fill:#009644"/><path d="M141.91992,261.91992a7.97509,7.97509,0,0,1-5.65674-2.34326l-10.60644-10.60645A30.427,30.427,0,0,0,104,240a8,8,0,0,1,0-16,46.32162,46.32162,0,0,1,32.97021,13.65674l10.60645,10.60644a8,8,0,0,1-5.65674,13.65674Z" style="fill:#009644"/><path d="M168,240a7.97507,7.97507,0,0,1-5.65674-2.34326l-12.68652-12.68653A30.427,30.427,0,0,0,128,216a8,8,0,0,1,0-16,46.32162,46.32162,0,0,1,32.97021,13.65674l12.68653,12.68652A8,8,0,0,1,168,240Z" style="fill:#009644"/><path d="M189.80078,213.80078a7.97507,7.97507,0,0,1-5.65674-2.34326l-10.4873-10.48731A30.427,30.427,0,0,0,152,192a8,8,0,0,1,0-16,46.32162,46.32162,0,0,1,32.97021,13.65674l10.48731,10.4873a8,8,0,0,1-5.65674,13.65674Z" style="fill:#009644"/><path d="M213.57666,189.57666a7.97507,7.97507,0,0,1-5.65674-2.34326l-10.26318-10.26319A30.427,30.427,0,0,0,176,168a8,8,0,0,1,0-16,46.32162,46.32162,0,0,1,32.97021,13.65674l10.26319,10.26318a8,8,0,0,1-5.65674,13.65674Z" style="fill:#009644"/><path d="M240,168a7.97507,7.97507,0,0,1-5.65674-2.34326l-12.68652-12.68653A30.427,30.427,0,0,0,200,144a8,8,0,0,1,0-16,46.32162,46.32162,0,0,1,32.97021,13.65674l12.68653,12.68652A8,8,0,0,1,240,168Z" style="fill:#009644"/><path d="M264,144a7.97507,7.97507,0,0,1-5.65674-2.34326l-12.68652-12.68653A30.427,30.427,0,0,0,224,120a8,8,0,0,1,0-16,46.32162,46.32162,0,0,1,32.97021,13.65674l12.68653,12.68652A8,8,0,0,1,264,144Z" style="fill:#009644"/><path d="M290.50439,122.50439a7.975,7.975,0,0,1-5.65673-2.34326l-15.19092-15.19092A30.427,30.427,0,0,0,248,96a8,8,0,0,1,0-16,46.32162,46.32162,0,0,1,32.97021,13.65674l15.19092,15.19092a8,8,0,0,1-5.65674,13.65673Z" style="fill:#009644"/><path d="M424,232a7.99977,7.99977,0,0,1-8-8,30.427,30.427,0,0,0-8.97021-21.65674l-11.21485-11.21484a7.99984,7.99984,0,1,1,11.31348-11.31348l11.21484,11.21485A46.32162,46.32162,0,0,1,432,224,7.99977,7.99977,0,0,1,424,232Z" style="fill:#009644"/><path d="M448,208a7.99977,7.99977,0,0,1-8-8,21.8506,21.8506,0,0,0-9.75049-18.21826L410.7876,168.80615a7.99982,7.99982,0,0,1,8.875-13.3125l19.46191,12.9751A37.81805,37.81805,0,0,1,456,200,7.99977,7.99977,0,0,1,448,208Z" style="fill:#009644"/><path d="M400,256a7.99977,7.99977,0,0,1-8-8,30.427,30.427,0,0,0-8.97021-21.65674l-12.68653-12.68652a7.99984,7.99984,0,0,1,11.31348-11.31348l12.68652,12.68653A46.32162,46.32162,0,0,1,408,248,7.99977,7.99977,0,0,1,400,256Z" style="fill:#009644"/><path d="M376,280a7.99977,7.99977,0,0,1-8-8,30.427,30.427,0,0,0-8.97021-21.65674l-9.584-9.584a7.99984,7.99984,0,1,1,11.31348-11.31348l9.584,9.584A46.32162,46.32162,0,0,1,384,272,7.99977,7.99977,0,0,1,376,280Z" style="fill:#009644"/><path d="M352,304a7.99977,7.99977,0,0,1-8-8,30.427,30.427,0,0,0-8.97021-21.65674L323.68555,262.999A7.99983,7.99983,0,1,1,334.999,251.68555l11.34424,11.34424A46.32162,46.32162,0,0,1,360,296,7.99977,7.99977,0,0,1,352,304Z" style="fill:#009644"/><path d="M328,328a7.99977,7.99977,0,0,1-8-8,30.427,30.427,0,0,0-8.97021-21.65674l-12.68653-12.68652a7.99984,7.99984,0,0,1,11.31348-11.31348l12.68652,12.68653A46.32162,46.32162,0,0,1,336,320,7.99977,7.99977,0,0,1,328,328Z" style="fill:#009644"/><path d="M304,352a7.99977,7.99977,0,0,1-8-8,30.427,30.427,0,0,0-8.97021-21.65674l-10.71436-10.71435a7.99984,7.99984,0,0,1,11.31348-11.31348l10.71435,10.71436A46.32162,46.32162,0,0,1,312,344,7.99977,7.99977,0,0,1,304,352Z" style="fill:#009644"/><path d="M280,376a7.99977,7.99977,0,0,1-8-8,30.427,30.427,0,0,0-8.97021-21.65674l-12.68653-12.68652a7.99984,7.99984,0,0,1,11.31348-11.31348l12.68652,12.68653A46.32162,46.32162,0,0,1,288,368,7.99977,7.99977,0,0,1,280,376Z" style="fill:#009644"/><path d="M256,400a7.99977,7.99977,0,0,1-8-8,30.427,30.427,0,0,0-8.97021-21.65674L228.11572,359.4292a7.99984,7.99984,0,0,1,11.31348-11.31348l10.91406,10.91407A46.32162,46.32162,0,0,1,264,392,7.99977,7.99977,0,0,1,256,400Z" style="fill:#009644"/><path d="M232,424a7.99977,7.99977,0,0,1-8-8,30.427,30.427,0,0,0-8.97021-21.65674l-12.68653-12.68652a7.99984,7.99984,0,0,1,11.31348-11.31348l12.68652,12.68653A46.32162,46.32162,0,0,1,240,416,7.99977,7.99977,0,0,1,232,424Z" style="fill:#009644"/><path d="M208,448a7.99977,7.99977,0,0,1-8-8,30.427,30.427,0,0,0-8.97021-21.65674L177.4082,404.72168a7.99984,7.99984,0,1,1,11.31348-11.31348l13.62158,13.62159A46.32162,46.32162,0,0,1,216,440,7.99977,7.99977,0,0,1,208,448Z" style="fill:#009644"/><path d="M184,472a7.99977,7.99977,0,0,1-8-8,30.427,30.427,0,0,0-8.97021-21.65674L153.4082,428.72168a7.99984,7.99984,0,1,1,11.31348-11.31348l13.62158,13.62159A46.32162,46.32162,0,0,1,192,464,7.99977,7.99977,0,0,1,184,472Z" style="fill:#009644"/><path d="M143.99365,496.002a8.00367,8.00367,0,0,1-7.14892-11.57959,22.87658,22.87658,0,0,0-1.42383-22.86914L124.01025,444.4375a7.99982,7.99982,0,1,1,13.3125-8.875l11.41065,17.11572a38.90944,38.90944,0,0,1,2.42187,38.89942A8.00005,8.00005,0,0,1,143.99365,496.002Z" style="fill:#009644"/><path d="M310.36084,94.36084a7.97507,7.97507,0,0,1-5.65674-2.34326L293.65674,80.97021A30.427,30.427,0,0,0,272,72a8,8,0,0,1,0-16,46.32162,46.32162,0,0,1,32.97021,13.65674L316.01758,80.7041a8,8,0,0,1-5.65674,13.65674Z" style="fill:#009644"/><path d="M339.95459,75.95459a7.97507,7.97507,0,0,1-5.65674-2.34326L317.65674,56.97021A30.427,30.427,0,0,0,296,48a8,8,0,0,1,0-16,46.32162,46.32162,0,0,1,32.97021,13.65674l16.64112,16.64111a8,8,0,0,1-5.65674,13.65674Z" style="fill:#009644"/><path d="M363.666,71.32129a7.99919,7.99919,0,0,1-7.16163-4.42432L344,41.88867A17.791,17.791,0,0,0,328,32a8,8,0,0,1,0-16,33.7025,33.7025,0,0,1,30.31055,18.7334l12.50439,25.0083A8.00368,8.00368,0,0,1,363.666,71.32129Z" style="fill:#009644"/><path d="M384,74.5376a7.99977,7.99977,0,0,1-8-8V40a8.00917,8.00917,0,0,0-8-8,8,8,0,0,1,0-16,24.02687,24.02687,0,0,1,24,24V66.5376A7.99977,7.99977,0,0,1,384,74.5376Z" style="fill:#009644"/><path d="M394.22168,80.65723a8.00143,8.00143,0,0,1-6.64893-12.43848l11.84815-17.772a22.87542,22.87542,0,0,0,1.42383-22.86914,7.99984,7.99984,0,1,1,14.31054-7.15528,38.90944,38.90944,0,0,1-2.42187,38.89942l-11.84815,17.772A7.99214,7.99214,0,0,1,394.22168,80.65723Z" style="fill:#009644"/><path d="M408.39453,93.07617A8.00072,8.00072,0,0,1,403.94971,78.419l18.2998-12.2002A21.8521,21.8521,0,0,0,432,48a8,8,0,0,1,16,0,37.81956,37.81956,0,0,1-16.87549,31.53174l-18.2998,12.19971A7.96306,7.96306,0,0,1,408.39453,93.07617Z" style="fill:#009644"/><path d="M438.11133,104H413.95361a8,8,0,0,1,0-16h24.15772a20.831,20.831,0,0,0,18.7334-11.57764,7.99984,7.99984,0,0,1,14.31054,7.15528A36.74208,36.74208,0,0,1,438.11133,104Z" style="fill:#009644"/><path d="M432,129.54v.6a73.57616,73.57616,0,0,1-20.81006,51.27L173.53,425.85a72.86582,72.86582,0,0,1-61.01,21.63l-11.83008,11.83A16.00817,16.00817,0,0,0,96,470.63V488H64V475.88a48.00344,48.00344,0,0,1,14.06006-33.94l4.77-4.77A73.05237,73.05237,0,0,1,48,374.89,93.88627,93.88627,0,0,1,75.5,308.5L306.46,77.54a73.53915,73.53915,0,0,1,125.54,52Z" style="fill:#02c26a"/><path d="M31.99854,400a8,8,0,0,1-5.8418-13.46387l5.0459-5.39648A41.55169,41.55169,0,0,1,64.5542,368.019,8.00018,8.00018,0,1,1,63.4458,383.981a25.60241,25.60241,0,0,0-20.55664,8.08642l-5.0459,5.39649A7.97719,7.97719,0,0,1,31.99854,400Z" style="fill:#009644"/><path d="M32,360a8,8,0,0,1-5.65674-13.65674,44.36861,44.36861,0,0,1,45.65283-10.77734l2.53418.84472a8,8,0,0,1-5.06054,15.17872l-2.53369-.84473a28.4534,28.4534,0,0,0-29.2793,6.91211A7.97507,7.97507,0,0,1,32,360Z" style="fill:#009644"/><path d="M79.99365,328.002a7.96731,7.96731,0,0,1-3.57129-.84668l-16-8a27.91375,27.91375,0,0,0-24.84472,0,7.99984,7.99984,0,1,1-7.15528-14.31054,43.98341,43.98341,0,0,1,39.15528,0l16,8a8.0013,8.0013,0,0,1-3.584,15.15722Z" style="fill:#009644"/><path d="M80,408a7.99977,7.99977,0,0,1-8-8,30.16,30.16,0,0,1,20.64893-28.64893l8.82128-2.94043a7.99989,7.99989,0,1,1,5.05958,15.17872l-8.82129,2.94043A14.18046,14.18046,0,0,0,88,400,7.99977,7.99977,0,0,1,80,408Z" style="fill:#009644"/><path d="M96,360a7.99977,7.99977,0,0,1-8-8,30.16,30.16,0,0,1,20.64893-28.64893l8.82128-2.94043a7.99989,7.99989,0,1,1,5.05958,15.17872l-8.82129,2.94043A14.18046,14.18046,0,0,0,104,352,7.99977,7.99977,0,0,1,96,360Z" style="fill:#009644"/><path d="M136,376a7.99977,7.99977,0,0,1-8-8,30.16,30.16,0,0,1,20.64893-28.64893l8.82128-2.94043a7.99989,7.99989,0,1,1,5.05958,15.17872l-8.82129,2.94043A14.18046,14.18046,0,0,0,144,368,7.99977,7.99977,0,0,1,136,376Z" style="fill:#009644"/><path d="M104,432a7.99977,7.99977,0,0,1-8-8,46.32162,46.32162,0,0,1,13.65674-32.97021l4.68652-4.68653a7.99984,7.99984,0,0,1,11.31348,11.31348l-4.68653,4.68652A30.427,30.427,0,0,0,112,424,7.99977,7.99977,0,0,1,104,432Z" style="fill:#009644"/><path d="M144,424a7.99977,7.99977,0,0,1-8-8,37.81956,37.81956,0,0,1,16.87549-31.53174l10.687-7.12451a7.99982,7.99982,0,1,1,8.875,13.3125l-10.68652,7.125A21.85136,21.85136,0,0,0,152,416,7.99977,7.99977,0,0,1,144,424Z" style="fill:#009644"/><path d="M384,122.91a50.90941,50.90941,0,0,1-14.90991,36L214.63,313.37a32.0004,32.0004,0,0,1-45.26,0L120,264,297.09009,86.91A50.90991,50.90991,0,0,1,384,122.91Z" style="fill:#67eba0"/><path d="M236,292l-21.37,21.37a32.0004,32.0004,0,0,1-45.26,0L120,264l44-44Z" style="fill:#3cde8d"/><rect height="22.62742" style="fill:#08d175" transform="translate(-97.47013 212.68629) rotate(-45)" width="15.99967" x="200.00016" y="212.68629"/><rect height="22.62742" style="fill:#08d175" transform="translate(-107.41125 236.68629) rotate(-45)" width="15.99967" x="224.00016" y="236.68629"/><rect height="22.62742" style="fill:#08d175" transform="translate(-73.47013 222.62742) rotate(-45)" width="15.99967" x="224.00016" y="188.68629"/><rect height="22.62742" style="fill:#08d175" transform="translate(-83.41125 246.62742) rotate(-45)" width="15.99967" x="248.00016" y="212.68629"/><rect height="22.62742" style="fill:#08d175" transform="translate(-49.47013 232.56854) rotate(-45)" width="15.99967" x="248.00016" y="164.68629"/><rect height="22.62742" style="fill:#08d175" transform="translate(-59.41125 256.56854) rotate(-45)" width="15.99967" x="272.00016" y="188.68629"/><rect height="22.62742" style="fill:#08d175" transform="translate(-25.47013 242.50967) rotate(-45)" width="15.99967" x="272.00016" y="140.68629"/><rect height="22.62742" style="fill:#08d175" transform="translate(-35.41125 266.50967) rotate(-45)" width="15.99967" x="296.00016" y="164.68629"/><rect height="22.62742" style="fill:#08d175" transform="translate(-1.47013 252.45079) rotate(-45)" width="15.99967" x="296.00016" y="116.68629"/><rect height="22.62742" style="fill:#08d175" transform="translate(-11.41125 276.45079) rotate(-45)" width="15.99967" x="320.00016" y="140.68629"/><rect height="22.62742" style="fill:#08d175" transform="translate(22.52987 262.39192) rotate(-45)" width="15.99967" x="320.00016" y="92.68629"/><rect height="22.62742" style="fill:#08d175" transform="translate(12.58875 286.39192) rotate(-45)" width="15.99967" x="344.00016" y="116.68629"/></svg>