<?xml version="1.0" standalone="no"?>
<!DOCTYPE svg PUBLIC "-//W3C//DTD SVG 20010904//EN"
 "http://www.w3.org/TR/2001/REC-SVG-20010904/DTD/svg10.dtd">
<svg version="1.0" xmlns="http://www.w3.org/2000/svg"
 width="256.000000pt" height="256.000000pt" viewBox="0 0 256.000000 256.000000"
 preserveAspectRatio="xMidYMid meet">

<g transform="translate(0.000000,256.000000) scale(0.100000,-0.100000)"
fill="#000000" stroke="none">
<path d="M1195 2539 c-47 -14 -905 -523 -943 -559 -19 -18 -46 -58 -61 -89
l-26 -56 0 -555 0 -555 26 -56 c15 -31 42 -71 61 -89 42 -39 899 -546 948
-560 45 -13 115 -13 160 0 49 14 906 521 948 560 19 18 46 58 61 89 l26 56 0
555 0 555 -26 56 c-15 31 -42 71 -60 88 -42 40 -901 548 -949 561 -42 12 -124
12 -165 -1z m596 -330 c244 -144 452 -268 462 -277 9 -8 28 -38 42 -67 l26
-51 -3 -545 -3 -546 -30 -49 c-25 -39 -48 -59 -125 -105 -52 -31 -257 -151
-454 -267 l-359 -212 -67 0 -66 0 -454 268 c-435 256 -455 269 -485 316 l-30
49 0 557 0 557 30 49 c29 47 50 60 485 317 l454 267 66 0 67 0 444 -261z"/>
<path d="M1213 2306 c-60 -27 -608 -349 -621 -364 -6 -9 -12 -19 -12 -23 0
-10 29 -39 39 -39 4 0 146 81 317 180 237 138 317 180 343 180 26 0 105 -41
335 -174 166 -96 308 -178 317 -181 15 -6 49 18 49 34 0 20 -49 52 -331 215
-331 191 -365 204 -436 172z"/>
<path d="M1905 1496 c-5 -2 -22 -7 -37 -10 -70 -16 -127 -103 -128 -196 0
-120 44 -189 138 -216 104 -30 201 2 249 83 24 41 28 59 28 123 0 95 -29 153
-93 188 -38 21 -132 38 -157 28z m104 -81 c38 -19 61 -71 61 -135 0 -98 -45
-150 -130 -150 -32 0 -48 6 -70 28 -91 92 -45 272 69 272 23 0 55 -7 70 -15z"/>
<path d="M410 1471 c-6 -12 -10 -92 -10 -191 0 -99 4 -179 10 -191 10 -17 22
-19 113 -19 159 1 215 37 240 155 22 108 -25 224 -104 252 -19 7 -80 12 -136
12 -91 1 -103 -1 -113 -18z m193 -52 c54 -15 77 -56 77 -137 0 -108 -42 -152
-145 -152 l-45 0 0 150 0 150 38 0 c20 0 54 -5 75 -11z"/>
<path d="M862 1478 c-18 -18 -17 -381 2 -397 9 -8 61 -11 162 -9 l149 3 0 25
0 25 -120 5 -120 5 -3 62 -3 62 108 3 c108 3 108 3 108 28 0 25 0 25 -107 28
l-108 3 0 54 0 54 118 3 117 3 0 25 0 25 -145 3 c-105 2 -149 -1 -158 -10z"/>
<path d="M1262 1478 c-17 -17 -17 -389 0 -406 14 -14 28 -15 48 -2 12 7 16 41
20 162 l5 153 33 -130 c18 -71 37 -142 43 -157 22 -55 82 -43 98 20 5 20 17
66 26 102 9 36 24 90 33 120 l17 55 5 -159 c4 -134 8 -161 22 -169 12 -8 21
-7 32 2 14 11 16 43 16 211 0 220 3 210 -70 210 -20 0 -43 -6 -49 -14 -7 -8
-26 -66 -43 -128 -16 -62 -33 -119 -38 -127 -4 -8 -20 34 -39 105 -45 170 -42
164 -99 164 -26 0 -53 -5 -60 -12z"/>
</g>
</svg>
